# xmcd
#
# Track frame offsets:
#	150
#	11767
#	33677
#	54755
#	84136
#	98217
#	136896
#	149635
#	163046
#	186686
#	200587
#	215338
#	229372
#	243743
#	255951
#
# Disc length: 3604 seconds
#
# Revision: 1
# Processed by: cddbd v1.5.2PL0 Copyright (c) Steve Scherf et al.
# Submitted via: audiograbber 1.83.01
#
DISCID=d80e120f
DTITLE=VariousBlues - Encyclopedia of Blues Vol One
DYEAR=1900
DGENRE=Blues
TTITLE0=Mother's Blues - Leadbelly
TTITLE1=Every day I have the Blues - BB King
TTITLE2=Looking Back over my Day - John Lee Hooker
TTITLE3=Blues for Hamp - Lionel Hampton
TTITLE4=Gin House Blues - Nina Simone
TTITLE5=Blues for Gerry - Carmen McRae
TTITLE6=Honolulu Blues - Miff Mole's Molers
TTITLE7=Lonely Nights - Memphis Slim
TTITLE8=Darling you know I love you - BB King
TTITLE9=The Boll Weevil - Leadbelly
TTITLE10=Don't Misunderstand - Carmen McRae
TTITLE11=Swing the Blues - COunt Basie
TTITLE12=Black and Blue What Did I do to be so - Lois Armstrong
TTITLE13=C-Jam Blues - Dike Ellington
TTITLE14=Farewell Blues - Glen Miller
EXTD=
EXTT0=
EXTT1=
EXTT2=
EXTT3=
EXTT4=
EXTT5=
EXTT6=
EXTT7=
EXTT8=
EXTT9=
EXTT10=
EXTT11=
EXTT12=
EXTT13=
EXTT14=
PLAYORDER=
